PathFileType	4	(X/Y/Z)	pose_F01_0-96.trc
DataRate	CameraRate	NumFrames	NumMarkers	Units	OrigDataRate	OrigDataStartFrame	OrigNumFrames
30	30	7	21	m	30	24	96
Frame#	Time	CHip			RHip			RKnee			RAnkle			RBigToe			RSmallToe			RHeel			LHip			LKnee			LAnkle			LBigToe			LSmallToe			LHeel			Neck			Nose			RShoulder			RElbow			RWrist			LShoulder			LElbow			LWrist			
		X1	Y1	Z1	X2	Y2	Z2	X3	Y3	Z3	X4	Y4	Z4	X5	Y5	Z5	X6	Y6	Z6	X7	Y7	Z7	X8	Y8	Z8	X9	Y9	Z9	X10	Y10	Z10	X11	Y11	Z11	X12	Y12	Z12	X13	Y13	Z13	X14	Y14	Z14	X15	Y15	Z15	X16	Y16	Z16	X17	Y17	Z17	X18	Y18	Z18	X19	Y19	Z19	X20	Y20	Z20	X21	Y21	Z21	
24	0.8	-0.2138029991738997	1.8161207994207207	-0.38027729779987496	-0.2260519184720123	1.8158916946331702	-0.328584413150422	-0.2382023378280117	1.6891169977412013	-0.4106653960470399	-0.19576647813250758	1.5668202796884223	-0.4808102212232399	-0.21693377685272355	1.5411136874515081	-0.5315826839415424	-0.21845131438542736	1.540892322252101	-0.5043554938767777	-0.1892161466537207	1.5595005159515212	-0.4867546339626329	-0.2007917232795796	1.8173690324818805	-0.43226306460941405	-0.21651775070121046	1.706005231136184	-0.4377093910140494	-0.17784015274890347	1.5675392633819303	-0.456102347900145	-0.21540078888428876	1.5434874700150811	-0.49249961174541057	-0.20106597985690183	1.5472265905824105	-0.5034343876275028	-0.1666519878540388	1.5627546630107416	-0.43890459848942814	-0.21099511365776374	1.9776101471090748	-0.4398462213305781	-0.2378248404327184	2.0338001386135156	-0.49680684619343307	-0.23432441228515996	1.9774113505853688	-0.36505071415329066	-0.25062927717134403	1.9014112221554487	-0.31819063094966116	-0.30663754571926394	1.9137618022202065	-0.4021365307077297	-0.18585755733426862	1.9787023938879704	-0.5069842787500828	-0.18997717918895535	1.9168089525736391	-0.5151017907026378	-0.21865960369250456	1.9823792481824822	-0.532119952196005
25	0.8333333333333334	-0.2117623090247323	1.8173118229403178	-0.3734836347452772	-0.22244353277598353	1.8161915590375401	-0.30955337784238857	-0.2382023378280117	1.6891169977412013	-0.4106653960470399	-0.19576647813250758	1.5668202796884223	-0.4808102212232399	-0.21693377685272355	1.5411136874515081	-0.5315826839415424	-0.21845131438542736	1.540892322252101	-0.5043554938767777	-0.1892161466537207	1.5595005159515212	-0.4867546339626329	-0.19951534801865836	1.817931591592078	-0.4289726558527756	-0.2155666456683628	1.7057957351012878	-0.4349598468378616	-0.17506087800789857	1.5693501233866243	-0.45528674280500564	-0.21132435994086912	1.5460292936232862	-0.492054587210717	-0.1971400095905294	1.550214022957876	-0.5029955681457694	-0.16548499022849358	1.5656479761060222	-0.437291012911988	-0.2100775659337981	1.973359731950431	-0.42738361092711924	-0.24172067567048128	2.0322682385943214	-0.4923068638204547	-0.2313033052888407	1.9734305989803922	-0.35461321247392125	-0.2504804176899291	1.8952722381447187	-0.3170276896798007	-0.3058825018205513	1.9104071877109956	-0.3985284949202162	-0.18695315383630415	1.9758554731415543	-0.5011658402685203	-0.19388003356152197	1.9194591205694438	-0.4922498312153265	-0.22076865506227117	1.9805064478162917	-0.52230537688239
26	0.8666666666666667	-0.20848512213253897	1.8198044861528366	-0.3638267762869208	-0.21773091030690336	1.8165465118675777	-0.31039065082087364	-0.2382023378280117	1.6891169977412013	-0.4106653960470399	-0.19576647813250758	1.5668202796884223	-0.4808102212232399	-0.21693377685272355	1.5411136874515081	-0.5315826839415424	-0.21845131438542736	1.540892322252101	-0.5043554938767777	-0.1892161466537207	1.5595005159515212	-0.4867546339626329	-0.19565548772243685	1.820262100993129	-0.4245866661223813	-0.21461554063551516	1.7055862390663914	-0.4322103026616738	-0.17228160326689368	1.5711609833913183	-0.4544711377098663	-0.20724793099744948	1.548571117231491	-0.4916095626760234	-0.193214039324157	1.5532014553333415	-0.502556748664036	-0.16431799260294835	1.5685412892013029	-0.4356774273345479	-0.2100989018150062	1.9755728712643663	-0.41951958633320485	-0.2428638451313405	2.0310677153368832	-0.48699807888117247	-0.23034720744837142	1.974638788145363	-0.351685316250057	-0.2473573568763611	1.8962080488218784	-0.3070780387310271	-0.30639935740384544	1.9081652103813396	-0.3840547210494133	-1.8687981173961592	1.8942029131524247	1.3856011889087105	-0.20040676337820673	1.9190119590517076	-0.5226504931693193	-0.22287770643203778	1.9786336474501014	-0.512490801568775
27	0.9	-0.20647447580561964	1.813669418287987	-0.35622164091306097	-0.21824558137616845	1.8116777468262026	-0.30416583102203654	-0.2382023378280117	1.6891169977412013	-0.4106653960470399	-0.19576647813250758	1.5668202796884223	-0.4808102212232399	-0.21693377685272355	1.5411136874515081	-0.5315826839415424	-0.21845131438542736	1.540892322252101	-0.5043554938767777	-0.1892161466537207	1.5595005159515212	-0.4867546339626329	-0.19444429810606786	1.8153098009612498	-0.4116921693970425	-0.2136644356026675	1.705376743031495	-0.42946075848548604	-0.16950232852588876	1.5729718433960125	-0.45365553261472696	-0.2031715020540298	1.5511129408396962	-0.4911645381413299	-0.18928806905778459	1.5561888877088073	-0.5021179291823025	-0.1631509949774031	1.5714346022965837	-0.4340638417571077	-0.20990214249277908	1.9726180384146021	-0.40993343464969306	-0.24179843630414094	2.029644030030129	-0.4834253904920683	-0.23404300440377668	1.9756936668459593	-0.3477880696082478	-0.24468371916022566	1.8957714767132325	-0.2914691777138965	-0.30411739962193735	1.901606696642775	-0.3760488812592663	-0.18534484367042686	1.9736125624302507	-0.47691309307450735	-0.18793610939994498	1.9054575674676435	-0.4889385136594021	-0.22070521439708626	1.9716840317241087	-0.510067169313874
28	0.9333333333333333	-0.2061947111760229	1.8132074553073605	-0.35611469258896306	-0.2172373820799931	1.810855377747267	-0.30076344447274383	-0.2382023378280117	1.6891169977412013	-0.4106653960470399	-0.19576647813250758	1.5668202796884223	-0.4808102212232399	-0.21693377685272355	1.5411136874515081	-0.5315826839415424	-0.21845131438542736	1.540892322252101	-0.5043554938767777	-0.1892161466537207	1.5595005159515212	-0.4867546339626329	-0.1942959928605742	1.8162206744049691	-0.41173746515497445	-0.21271333056981986	1.7051672469965988	-0.42671121430929826	-0.1667230537848839	1.5747827034007065	-0.4528399275195877	-0.19909507311061017	1.553654764447901	-0.4907195136066363	-0.1853620987914122	1.5591763200842728	-0.5016791097005691	-0.16198399735185787	1.5743279153918643	-0.4324502561796676	-0.21191900956082066	1.9738546638870926	-0.4078532624338556	-0.23979123861086554	2.029716653358444	-0.485478223406878	-0.2358713231105429	1.974344025521043	-0.34503130233583995	-0.24548842619909547	1.8926405181948542	-0.28546060687039854	-0.30972146034553016	1.9005932804933328	-0.3689008990630613	-0.18821897284178718	1.976240617488955	-0.46955328197646645	-0.18140027508663084	1.9056814815794851	-0.4747615465015781	-0.21853272236213472	1.9647344159981157	-0.5076435370589728
29	0.9666666666666667	-0.20620372340605142	1.8144544335519397	-0.3563212261097913	-0.21808482982418959	1.8124464124197774	-0.3043229430998438	-0.2382023378280117	1.6891169977412013	-0.4106653960470399	-0.19576647813250758	1.5668202796884223	-0.4808102212232399	-0.21693377685272355	1.5411136874515081	-0.5315826839415424	-0.21845131438542736	1.540892322252101	-0.5043554938767777	-0.1892161466537207	1.5595005159515212	-0.4867546339626329	-0.19129772156287408	1.8162157461488027	-0.41071105463885366	-0.21176222553697222	1.7049577509617024	-0.4239616701331105	-0.16394377904387897	1.5765935634054007	-0.45202432242444834	-0.19501864416719053	1.5561965880561062	-0.4902744890719427	-0.18143612852503976	1.5621637524597383	-0.5012402902188356	-0.16081699972631264	1.577221228487145	-0.43083667060222747	-0.21187856518228287	1.9713868246930657	-0.40740319202483105	-0.23601920395726864	2.0286286225391823	-0.48994633812166727	-0.23600650357973946	1.9718084488511751	-0.3448247420629051	-0.24868987339527057	1.8919458417037645	-0.29524973792795417	-0.31390444337798795	1.8882662760665372	-0.3865871561902735	-0.18264365857669754	1.972055478569928	-0.45838603224163976	-0.17431449364975954	1.9072445047779971	-0.47835543699857536	-0.2163602303271832	1.957784800272123	-0.5052199048040718
30	1.0	-0.2050906883003257	1.8146977434450213	-0.3620314609953922	-0.21736431252875116	1.8130484624920835	-0.31001181344461654	-0.2382023378280117	1.6891169977412013	-0.4106653960470399	-0.19576647813250758	1.5668202796884223	-0.4808102212232399	-0.21693377685272355	1.5411136874515081	-0.5315826839415424	-0.21845131438542736	1.540892322252101	-0.5043554938767777	-0.1892161466537207	1.5595005159515212	-0.4867546339626329	-0.19027083578490678	1.8164697804013916	-0.4163997026650839	-0.20438871073202283	1.7017046335188633	-0.44549326099771563	-0.16116450430287407	1.5784044234100947	-0.451208717329309	-0.19094221522377086	1.558738411664311	-0.4898294645372492	-0.17751015825866734	1.565151184835204	-0.5008014707371021	-0.15965000210076738	1.5801145415824258	-0.4292230850247873	-0.20922807945412994	1.9704165580548525	-0.41508014123709225	-0.234908873507622	2.0287880080021266	-0.49538737205930167	-0.23631130786806315	1.9695271122489681	-0.35299266053722933	-0.2503074445204096	1.8907629407788087	-0.3072533330297383	-0.3125673502120669	1.8800985534597456	-0.38167103324784674	-0.17948948962325179	1.973485487546109	-0.4749299169356818	-0.16301880894754273	1.901967715125808	-0.49488993604341563	-0.21295994240022686	1.9517057478700415	-0.5110384228374567
